<svg width="185" height="50" viewBox="0 0 185 50" fill="none" xmlns="http://www.w3.org/2000/svg">
<path d="M12.9739 1.01465H0V49.3765H12.9739V1.01465Z" fill="black"/>
<path d="M105.314 0.501221H92.3396V48.8631H105.314V0.501221Z" fill="black"/>
<path d="M118.916 48.8753V12.3717H109.312V0.635742H141.505V12.3717H131.902V48.8753H118.916Z" fill="black"/>
<path d="M145.625 0.635742H169.579V11.9927H158.478V18.692H168.456V30.0612H158.478V37.3839H169.579V48.7409H145.625V0.635742Z" fill="black"/>
<path d="M54.7829 0.635742H67.0079L77.3605 29.6822L77.4813 29.5599C76.986 23.9976 75.9833 18.4475 75.9833 12.8851V0.635742H88.3412V48.9976H75.9954L66.3918 21.0881L66.271 21.2103C66.6455 25.758 67.1408 30.3057 67.1408 34.8533V48.9976H54.7829V0.635742Z" fill="black"/>
<path d="M52.0407 21.2103L52.1615 23.2274C52.1615 35.0978 49.7938 50 34.5609 50C20.2098 50 15.5953 37.4939 15.5953 25.2445C15.5953 13.2641 20.2098 0 34.4401 0C42.3042 0 48.163 4.92665 51.0381 11.8704L38.3057 16.5403C38.1849 14.6455 36.9286 11.6137 34.5609 11.6137C28.4484 11.6137 29.0645 22.7262 29.0645 26.3936C29.3182 29.8044 28.9437 38.2641 34.0536 38.2641C37.5447 38.2641 38.6681 34.2176 38.5473 31.3203H33.6791V21.2225H52.0407V21.2103Z" fill="black"/>
<path d="M173.481 6.29588V6.2592C173.481 3.12962 175.994 0.476807 179.183 0.476807C182.372 0.476807 184.848 3.10517 184.848 6.23475V6.27143C184.848 9.40101 182.336 12.0538 179.147 12.0538C175.958 12.0538 173.481 9.42546 173.481 6.29588ZM184.184 6.2592V6.23475C184.184 3.42302 182.034 1.1125 179.171 1.1125C176.296 1.1125 174.133 3.44747 174.133 6.2592V6.29588C174.133 9.10761 176.284 11.4181 179.147 11.4181C182.022 11.4059 184.184 9.07094 184.184 6.2592ZM176.67 3.03182H179.485C180.439 3.03182 181.104 3.28854 181.526 3.71642C181.877 4.07094 182.046 4.52326 182.046 5.11006V5.14673C182.046 6.08805 181.563 6.6993 180.802 7.01715L182.251 9.14429H180.318L179.098 7.2861H179.062H178.361V9.14429H176.682V3.03182H176.67ZM179.449 5.97803C180.029 5.97803 180.355 5.70908 180.355 5.26898V5.23231C180.355 4.74331 179.992 4.49881 179.425 4.49881H178.337V5.97803H179.449Z" fill="black"/>
</svg>
