<svg width="31" height="31" viewBox="0 0 31 31" fill="none" xmlns="http://www.w3.org/2000/svg">
<path d="M15.5035 7.55199C11.105 7.55199 7.55722 11.1006 7.55722 15.5C7.55722 19.8994 11.105 23.448 15.5035 23.448C19.9019 23.448 23.4497 19.8994 23.4497 15.5C23.4497 11.1006 19.9019 7.55199 15.5035 7.55199ZM15.5035 20.6672C12.6611 20.6672 10.3374 18.3499 10.3374 15.5C10.3374 12.6501 12.6542 10.3328 15.5035 10.3328C18.3528 10.3328 20.6695 12.6501 20.6695 15.5C20.6695 18.3499 18.3458 20.6672 15.5035 20.6672ZM25.6282 7.22688C25.6282 8.25756 24.7983 9.08072 23.7747 9.08072C22.7443 9.08072 21.9213 8.25064 21.9213 7.22688C21.9213 6.20311 22.7512 5.37303 23.7747 5.37303C24.7983 5.37303 25.6282 6.20311 25.6282 7.22688ZM30.8911 9.10839C30.7735 6.62507 30.2064 4.42536 28.3876 2.61302C26.5756 0.80068 24.3764 0.23346 21.8936 0.108948C19.3348 -0.036316 11.6652 -0.036316 9.10636 0.108948C6.63051 0.226542 4.43129 0.793763 2.61244 2.6061C0.793586 4.41844 0.233408 6.61815 0.108924 9.10147C-0.0363079 11.6609 -0.0363079 19.3322 0.108924 21.8916C0.226492 24.3749 0.793586 26.5746 2.61244 28.387C4.43129 30.1993 6.62359 30.7665 9.10636 30.8911C11.6652 31.0363 19.3348 31.0363 21.8936 30.8911C24.3764 30.7735 26.5756 30.2062 28.3876 28.387C30.1995 26.5746 30.7666 24.3749 30.8911 21.8916C31.0363 19.3322 31.0363 11.6678 30.8911 9.10839ZM27.5853 24.6378C27.0459 25.9936 26.0016 27.0381 24.6392 27.5846C22.5991 28.3939 17.758 28.2071 15.5035 28.2071C13.2489 28.2071 8.40095 28.387 6.36771 27.5846C5.01221 27.045 3.96793 26.0005 3.42158 24.6378C2.61244 22.5972 2.79916 17.755 2.79916 15.5C2.79916 13.245 2.61935 8.39591 3.42158 6.36221C3.96102 5.00642 5.0053 3.9619 6.36771 3.41543C8.40786 2.6061 13.2489 2.79287 15.5035 2.79287C17.758 2.79287 22.606 2.61302 24.6392 3.41543C25.9947 3.95498 27.039 4.9995 27.5853 6.36221C28.3945 8.40282 28.2078 13.245 28.2078 15.5C28.2078 17.755 28.3945 22.6041 27.5853 24.6378Z" fill="white"/>
</svg>
